<svg id="visual" viewBox="0 0 900 600" width="900" height="600" xmlns="http://www.w3.org/2000/svg" xmlns:xlink="http://www.w3.org/1999/xlink" version="1.1"><g><g transform="translate(674 554)"><path d="M75.1 -42.6C89.5 -18.5 87.8 15.6 72.6 40.7C57.4 65.8 28.7 82 0.3 81.8C-28 81.6 -56.1 65.1 -70.2 40.6C-84.3 16.1 -84.5 -16.4 -70.5 -40.2C-56.4 -64.1 -28.2 -79.3 1.1 -79.9C30.4 -80.6 60.8 -66.6 75.1 -42.6Z" stroke="rgba(0,217,255,0.3)" fill="none" stroke-width="20"></path></g><g transform="translate(579 61)"><path d="M34 -19.9C40.3 -8.6 39.2 6.7 32.2 18.5C25.3 30.4 12.7 38.8 -0.2 38.9C-13.2 39 -26.3 30.9 -33.3 19C-40.3 7.1 -41.2 -8.6 -34.6 -20C-28 -31.3 -14 -38.4 -0.1 -38.3C13.8 -38.3 27.6 -31.1 34 -19.9Z" stroke="rgba(0,217,255,0.3)" fill="none" stroke-width="20"></path></g><g transform="translate(119 312)"><path d="M60.9 -34.6C72.9 -14.2 72.6 13.8 60.4 35.6C48.2 57.5 24.1 73.2 0.4 73C-23.3 72.7 -46.6 56.6 -58.9 34.7C-71.1 12.8 -72.4 -14.9 -60.7 -35C-49 -55.1 -24.5 -67.7 -0.1 -67.7C24.4 -67.6 48.8 -54.9 60.9 -34.6Z" stroke="rgba(0,217,255,0.3)" fill="none" stroke-width="20"></path></g><g transform="translate(839 417)"><path d="M29.3 -17C35.1 -6.9 34.9 6.6 29.1 17.2C23.2 27.8 11.6 35.5 -0.2 35.6C-12.1 35.7 -24.1 28.3 -30.2 17.6C-36.3 6.9 -36.3 -7 -30.3 -17.3C-24.2 -27.6 -12.1 -34.2 -0.2 -34.1C11.7 -33.9 23.5 -27.1 29.3 -17Z" stroke="rgba(0,217,255,0.3)" fill="none" stroke-width="20"></path></g><g transform="translate(453 269)"><path d="M72.9 -41.1C87.8 -16.2 88.7 17.8 74.3 42C59.8 66.2 29.9 80.7 0 80.7C-30 80.7 -59.9 66.3 -73.3 42.7C-86.7 19.2 -83.4 -13.6 -68.4 -38.5C-53.5 -63.4 -26.7 -80.5 1.1 -81.2C29 -81.8 57.9 -66 72.9 -41.1Z" stroke="rgba(0,217,255,0.3)" fill="none" stroke-width="20"></path></g><g transform="translate(878 84)"><path d="M26.9 -15.9C32.3 -6.1 32.5 6.4 27.1 16.2C21.7 26.1 10.9 33.3 -0.1 33.4C-11 33.4 -22 26.3 -27.6 16.3C-33.1 6.3 -33.2 -6.5 -27.7 -16.3C-22.2 -26.1 -11.1 -33.1 -0.2 -32.9C10.7 -32.8 21.5 -25.7 26.9 -15.9Z" stroke="rgba(0,217,255,0.3)" fill="none" stroke-width="20"></path></g><g transform="translate(465 487)"><path d="M40.6 -23.7C48.3 -10 47.4 8.4 39.2 21.9C31 35.3 15.5 43.9 0.3 43.7C-14.9 43.5 -29.7 34.6 -37.5 21.4C-45.4 8.1 -46.1 -9.5 -38.7 -23C-31.3 -36.5 -15.6 -46 0.4 -46.2C16.4 -46.5 32.9 -37.5 40.6 -23.7Z" stroke="rgba(0,217,255,0.3)" fill="none" stroke-width="20"></path></g><g transform="translate(189 18)"><path d="M64.9 -38C77.6 -15.5 76.9 14.2 63.8 37.2C50.8 60.2 25.4 76.5 -0.1 76.5C-25.5 76.5 -51 60.3 -64.4 37.2C-77.7 14 -78.9 -16.1 -66.2 -38.7C-53.4 -61.2 -26.7 -76.1 -0.3 -75.9C26.1 -75.7 52.2 -60.5 64.9 -38Z" stroke="rgba(0,217,255,0.3)" fill="none" stroke-width="20"></path></g><g transform="translate(678 265)"><path d="M67.9 -38.4C81.2 -16.1 80.5 15 66.9 38C53.3 61.1 26.6 76 -0.9 76.6C-28.4 77.1 -56.9 63.2 -71.1 39.8C-85.3 16.4 -85.3 -16.4 -71 -39.2C-56.8 -62 -28.4 -74.9 -0.6 -74.5C27.3 -74.2 54.5 -60.7 67.9 -38.4Z" stroke="rgba(0,217,255,0.3)" fill="none" stroke-width="20"></path></g><g transform="translate(179 558)"><path d="M39.1 -21.6C47.4 -8.2 48.6 10.3 40.9 24.5C33.2 38.6 16.6 48.5 0.7 48.1C-15.2 47.7 -30.5 37.1 -38.5 22.7C-46.6 8.3 -47.5 -9.8 -39.9 -22.9C-32.3 -35.9 -16.1 -43.9 -0.4 -43.7C15.4 -43.5 30.8 -35.1 39.1 -21.6Z" stroke="rgba(0,217,255,0.3)" fill="none" stroke-width="20"></path></g></g></svg>